<svg width="29" height="29" viewBox="0 0 29 29" fill="none" xmlns="http://www.w3.org/2000/svg">
<path fill-rule="evenodd" clip-rule="evenodd" d="M15.1111 21.5436L18.2018 18.4528C18.5445 18.1102 19.0835 18.0625 19.481 18.3397L23.9012 21.4226C24.4118 21.7787 24.4765 22.5097 24.0363 22.9499L23.2554 23.7308C22.5452 24.441 21.5283 24.7487 20.5689 24.451C18.2254 23.724 13.653 21.927 9.8855 18.1595C6.11801 14.3921 4.32108 9.81966 3.59401 7.47614C3.29637 6.51679 3.604 5.49988 4.31427 4.78962L5.09514 4.00875C5.53531 3.56857 6.26636 3.63322 6.62246 4.1438L9.70534 8.56404C9.98255 8.96151 9.93489 9.50054 9.59223 9.8432L6.50144 12.934" fill="white"/>
</svg>